<svg width="260" height="63" viewBox="0 0 260 63" fill="none" xmlns="http://www.w3.org/2000/svg">
<path d="M7.12808 0H5.53699V63H7.12808V0Z" fill="#E6E7E8"/>
<path d="M27.2873 0H25.6962V63H27.2873V0Z" fill="#E6E7E8"/>
<path d="M47.4304 0H45.8394V63H47.4304V0Z" fill="#E6E7E8"/>
<path d="M67.5736 0H65.9825V63H67.5736V0Z" fill="#E6E7E8"/>
<path d="M87.7168 0H86.1257V63H87.7168V0Z" fill="#E6E7E8"/>
<path d="M6.76214 42.7586L5.95068 41.39L26.0939 29.4711L46.5394 16.8043L67.0008 13.5898L88.4328 29.5189L87.4781 30.7919L66.5871 15.2607L46.9372 18.3479L26.9212 30.8237L6.76214 42.7586Z" fill="#0090C1"/>
<path d="M46.6508 23.9335C43.1504 23.9335 40.3024 21.0851 40.3024 17.5842C40.3024 14.0833 43.1504 11.2349 46.6508 11.2349C50.1512 11.2349 52.9993 14.0833 52.9993 17.5842C52.9993 21.0851 50.1512 23.9335 46.6508 23.9335Z" fill="#0090C1"/>
<path d="M66.794 20.7665C63.2936 20.7665 60.4456 17.9181 60.4456 14.4172C60.4456 10.9163 63.2936 8.06787 66.794 8.06787C70.2944 8.06787 73.1425 10.9163 73.1425 14.4172C73.1425 17.9181 70.2944 20.7665 66.794 20.7665Z" fill="#0090C1"/>
<path d="M6.36432 48.4235C2.86392 48.4235 0.0158691 45.5751 0.0158691 42.0742C0.0158691 38.5733 2.86392 35.7249 6.36432 35.7249C9.86472 35.7249 12.7128 38.5733 12.7128 42.0742C12.7128 45.5751 9.86472 48.4235 6.36432 48.4235Z" fill="#0090C1"/>
<path d="M26.5076 35.8683C23.0072 35.8683 20.1592 33.0199 20.1592 29.519C20.1592 26.0181 23.0072 23.1697 26.5076 23.1697C30.008 23.1697 32.8561 26.0181 32.8561 29.519C32.8561 33.0199 30.008 35.8683 26.5076 35.8683Z" fill="#00BFC6"/>
<path d="M108.051 26.7977V8.73633H119.459V12.0781H111.567V16.5338H118.6V19.7641H111.599V26.7977H108.067H108.051Z" fill="black"/>
<path d="M123.739 8.05225C124.917 8.05225 125.823 8.99112 125.823 10.1687C125.823 11.3463 124.901 12.2374 123.739 12.2374C122.578 12.2374 121.655 11.2985 121.655 10.1687C121.655 9.03886 122.594 8.05225 123.739 8.05225ZM122.053 26.7979V14.2584H125.442V26.7979H122.053Z" fill="black"/>
<path d="M130.899 22.6603C130.979 23.6469 131.71 24.5698 133.19 24.5698C134.304 24.5698 134.845 23.981 134.845 23.3286C134.845 22.7716 134.463 22.3102 133.492 22.1033L131.838 21.7214C129.419 21.1803 128.321 19.7322 128.321 17.9818C128.321 15.7381 130.31 13.8762 133.015 13.8762C136.579 13.8762 137.773 16.1359 137.932 17.4885L135.099 18.125C135.004 17.393 134.463 16.4382 133.031 16.4382C132.14 16.4382 131.424 16.9793 131.424 17.6954C131.424 18.3001 131.885 18.682 132.57 18.8093L134.352 19.1912C136.818 19.7004 138.075 21.1962 138.075 23.0422C138.075 25.079 136.5 27.1637 133.206 27.1637C129.435 27.1637 128.146 24.713 127.987 23.2968L130.899 22.6603Z" fill="black"/>
<path d="M144.185 26.7978H140.796V8.35449H144.185V15.3085C144.996 14.3378 146.38 13.94 147.574 13.94C150.756 13.94 152.235 16.1519 152.235 18.9049V26.7978H148.846V19.4937C148.846 18.0933 148.162 16.9953 146.523 16.9953C145.091 16.9953 144.264 18.0615 144.185 19.4459V26.8137V26.7978Z" fill="black"/>
<path d="M166.889 23.2013C166.253 25.3655 164.264 27.1796 161.177 27.1796C157.741 27.1796 154.702 24.713 154.702 20.4802C154.702 16.486 157.661 13.8762 160.859 13.8762C164.726 13.8762 167.049 16.3428 167.049 20.3688C167.049 20.8462 167.001 21.3554 167.001 21.419H158.043C158.123 23.074 159.523 24.2675 161.209 24.2675C162.784 24.2675 163.659 23.4718 164.057 22.3579L166.889 23.2013ZM163.739 19.0957C163.691 17.8545 162.88 16.6292 160.939 16.6292C159.189 16.6292 158.218 17.95 158.138 19.0957H163.739Z" fill="black"/>
<path d="M177.375 17.6158C176.993 17.5362 176.659 17.5203 176.356 17.5203C174.622 17.5203 173.126 18.3637 173.126 21.053V26.7817H169.737V14.2422H173.015V16.104C173.779 14.4491 175.513 14.1467 176.579 14.1467C176.866 14.1467 177.12 14.1786 177.375 14.1945V17.5999V17.6158Z" fill="black"/>
<path d="M181.448 8.05225C182.625 8.05225 183.532 8.99112 183.532 10.1687C183.532 11.3463 182.609 12.2374 181.448 12.2374C180.286 12.2374 179.364 11.2985 179.364 10.1687C179.364 9.03886 180.302 8.05225 181.448 8.05225ZM179.761 26.7979V14.2584H183.15V26.7979H179.761Z" fill="black"/>
<path d="M197.995 23.2013C197.359 25.3655 195.37 27.1796 192.283 27.1796C188.846 27.1796 185.807 24.713 185.807 20.4802C185.807 16.486 188.767 13.8762 191.965 13.8762C195.831 13.8762 198.154 16.3428 198.154 20.3688C198.154 20.8462 198.107 21.3554 198.107 21.419H189.149C189.228 23.074 190.629 24.2675 192.315 24.2675C193.89 24.2675 194.765 23.4718 195.163 22.3579L197.995 23.2013ZM194.845 19.0957C194.797 17.8545 193.986 16.6292 192.045 16.6292C190.294 16.6292 189.324 17.95 189.244 19.0957H194.845Z" fill="black"/>
<path d="M202.673 22.6603C202.753 23.6469 203.484 24.5698 204.964 24.5698C206.078 24.5698 206.619 23.981 206.619 23.3286C206.619 22.7716 206.237 22.3102 205.267 22.1033L203.612 21.7214C201.193 21.1803 200.095 19.7322 200.095 17.9818C200.095 15.7381 202.084 13.8762 204.789 13.8762C208.353 13.8762 209.547 16.1359 209.706 17.4885L206.874 18.125C206.778 17.393 206.237 16.4382 204.805 16.4382C203.914 16.4382 203.198 16.9793 203.198 17.6954C203.198 18.3001 203.66 18.682 204.344 18.8093L206.126 19.1912C208.592 19.7004 209.849 21.1962 209.849 23.0422C209.849 25.079 208.274 27.1637 204.98 27.1637C201.209 27.1637 199.92 24.713 199.761 23.2968L202.673 22.6603Z" fill="black"/>
<path d="M231.074 20.5279C231.074 24.3789 228.242 27.1796 224.503 27.1796C220.764 27.1796 217.932 24.3789 217.932 20.5279C217.932 16.6769 220.764 13.8762 224.503 13.8762C228.242 13.8762 231.074 16.661 231.074 20.5279ZM227.685 20.5279C227.685 18.1568 226.158 16.9634 224.503 16.9634C222.848 16.9634 221.321 18.1568 221.321 20.5279C221.321 22.899 222.848 24.0924 224.503 24.0924C226.158 24.0924 227.685 22.899 227.685 20.5279Z" fill="black"/>
<path d="M237.788 12.8895V14.2581H240.621V17.1542H237.788V26.7817H234.384V17.1542H232.299V14.2581H234.384V12.8259C234.384 9.99334 236.166 8.16333 238.934 8.16333C239.65 8.16333 240.334 8.29063 240.621 8.41794V11.2664C240.446 11.2186 240.111 11.1391 239.555 11.1391C238.791 11.1391 237.804 11.4733 237.804 12.8736L237.788 12.8895Z" fill="black"/>
<path d="M119.777 52.2586L111.583 39.4486V52.2586H108.067V34.1973H112.442L119.952 46.148V34.1973H123.469V52.2586H119.777Z" fill="black"/>
<path d="M138.488 48.6622C137.852 50.8264 135.863 52.6405 132.792 52.6405C129.356 52.6405 126.317 50.174 126.317 45.9411C126.317 41.9469 129.276 39.3372 132.474 39.3372C136.341 39.3372 138.664 41.8037 138.664 45.8297C138.664 46.3071 138.616 46.8163 138.616 46.88H129.658C129.738 48.5349 131.138 49.7284 132.824 49.7284C134.399 49.7284 135.274 48.9328 135.672 47.8188L138.504 48.6622H138.488ZM135.338 44.5567C135.29 43.3154 134.479 42.0901 132.538 42.0901C130.788 42.0901 129.817 43.4109 129.737 44.5567H135.338Z" fill="black"/>
<path d="M151.79 39.719L154.495 47.7869L156.818 39.719H160.175L156.261 52.2585H152.872L149.944 43.6973L147.064 52.2585H143.628L139.634 39.719H143.198L145.521 47.771L148.242 39.719H151.806H151.79Z" fill="black"/>
<path d="M167.749 52.2586V48.8532L177.152 37.539H168.083V34.1973H181.83V37.4754L172.283 48.8851H181.957V52.2427H167.749V52.2586Z" fill="black"/>
<path d="M195.895 48.6622C195.259 50.8264 193.27 52.6405 190.199 52.6405C186.762 52.6405 183.723 50.174 183.723 45.9411C183.723 41.9469 186.683 39.3372 189.881 39.3372C193.747 39.3372 196.07 41.8037 196.07 45.8297C196.07 46.3071 196.022 46.8163 196.022 46.88H187.064C187.144 48.5349 188.544 49.7284 190.231 49.7284C191.806 49.7284 192.681 48.9328 193.079 47.8188L195.911 48.6622H195.895ZM192.745 44.5567C192.697 43.3154 191.885 42.0901 189.944 42.0901C188.194 42.0901 187.224 43.4109 187.144 44.5567H192.745Z" fill="black"/>
<path d="M201.718 45.0499L204.805 44.5884C205.521 44.493 205.744 44.127 205.744 43.6973C205.744 42.8062 205.06 42.0742 203.628 42.0742C202.196 42.0742 201.337 43.013 201.241 44.111L198.234 43.4745C198.441 41.5172 200.239 39.353 203.612 39.353C207.59 39.353 209.069 41.5968 209.069 44.111V50.2694C209.069 50.9378 209.149 51.8289 209.228 52.2586H206.126C206.046 51.9244 205.998 51.2401 205.998 50.7627C205.362 51.7493 204.169 52.6246 202.307 52.6246C199.634 52.6246 197.995 50.8105 197.995 48.8532C197.995 46.6094 199.65 45.3682 201.734 45.0499H201.718ZM205.744 47.1823V46.6253L202.912 47.055C202.053 47.1823 201.352 47.6597 201.352 48.6304C201.352 49.3624 201.893 50.0785 202.975 50.0785C204.407 50.0785 205.728 49.3942 205.728 47.1664L205.744 47.1823Z" fill="black"/>
<path d="M212.458 52.2587V33.8154H215.847V52.2587H212.458Z" fill="black"/>
<path d="M222.355 45.0499L225.442 44.5884C226.158 44.493 226.38 44.127 226.38 43.6973C226.38 42.8062 225.696 42.0742 224.264 42.0742C222.832 42.0742 221.973 43.013 221.878 44.111L218.87 43.4745C219.077 41.5172 220.875 39.353 224.248 39.353C228.226 39.353 229.706 41.5968 229.706 44.111V50.2694C229.706 50.9378 229.785 51.8289 229.865 52.2586H226.762C226.683 51.9244 226.635 51.2401 226.635 50.7627C225.998 51.7493 224.805 52.6246 222.944 52.6246C220.271 52.6246 218.632 50.8105 218.632 48.8532C218.632 46.6094 220.286 45.3682 222.371 45.0499H222.355ZM226.38 47.1823V46.6253L223.548 47.055C222.689 47.1823 221.989 47.6597 221.989 48.6304C221.989 49.3624 222.53 50.0785 223.612 50.0785C225.044 50.0785 226.364 49.3942 226.364 47.1664L226.38 47.1823Z" fill="black"/>
<path d="M236.484 52.2587H233.095V39.7191H236.372V41.2786C237.136 39.9738 238.632 39.4009 239.984 39.4009C243.087 39.4009 244.519 41.6128 244.519 44.3658V52.2587H241.13V44.9546C241.13 43.5542 240.446 42.4562 238.807 42.4562C237.327 42.4562 236.468 43.6019 236.468 45.05V52.2587H236.484Z" fill="black"/>
<path d="M259.905 49.9829C259.905 50.8263 259.952 51.7334 260 52.2426H256.77C256.722 51.988 256.643 51.3833 256.643 50.7945C256.086 51.7811 254.813 52.545 253.127 52.545C249.562 52.545 247.017 49.7443 247.017 45.941C247.017 42.1378 249.483 39.4007 253.031 39.4007C255.195 39.4007 256.213 40.2919 256.579 40.9602V33.7993H259.92V49.967L259.905 49.9829ZM253.54 49.5215C255.274 49.5215 256.627 48.2007 256.627 45.9251C256.627 43.6495 255.274 42.4401 253.54 42.4401C251.806 42.4401 250.438 43.7132 250.438 45.9569C250.438 48.2007 251.758 49.5215 253.54 49.5215Z" fill="black"/>
<path d="M6.76214 16.2791L5.95068 17.6476L26.0939 29.5665L46.5394 42.2333L67.0008 45.4478L88.4328 29.5188L87.4781 28.2457L66.5871 43.7769L46.9372 40.6898L26.9212 28.2139L6.76214 16.2791Z" fill="#00BFC6"/>
<path d="M52.9993 41.4538C52.9993 44.9547 50.1512 47.8032 46.6508 47.8032C43.1504 47.8032 40.3024 44.9547 40.3024 41.4538C40.3024 37.9529 43.1504 35.1045 46.6508 35.1045C50.1512 35.1045 52.9993 37.9529 52.9993 41.4538Z" fill="#00BFC6"/>
<path d="M73.1425 44.6045C73.1425 48.1053 70.2944 50.9538 66.794 50.9538C63.2936 50.9538 60.4456 48.1053 60.4456 44.6045C60.4456 41.1036 63.2936 38.2551 66.794 38.2551C70.2944 38.2551 73.1425 41.1036 73.1425 44.6045Z" fill="#00BFC6"/>
<path d="M12.6969 16.9633C12.6969 20.4642 9.84885 23.3127 6.34845 23.3127C2.84805 23.3127 0 20.4642 0 16.9633C0 13.4625 2.84805 10.614 6.34845 10.614C9.84885 10.614 12.6969 13.4625 12.6969 16.9633Z" fill="#00BFC6"/>
<path d="M32.8561 29.519C32.8561 33.0199 30.008 35.8683 26.5076 35.8683C23.0072 35.8683 20.1592 33.0199 20.1592 29.519C20.1592 26.0181 23.0072 23.1697 26.5076 23.1697C30.008 23.1697 32.8561 26.0181 32.8561 29.519Z" fill="#00BFC6"/>
<path d="M86.9531 35.8683C83.4527 35.8683 80.6046 33.0199 80.6046 29.519C80.6046 26.0181 83.4527 23.1697 86.9531 23.1697C90.4535 23.1697 93.3015 26.0181 93.3015 29.519C93.3015 33.0199 90.4535 35.8683 86.9531 35.8683Z" fill="#0090C1"/>
</svg>
